<?xml version="1.0" standalone="no"?>
<!DOCTYPE svg PUBLIC "-//W3C//DTD SVG 20010904//EN"
 "http://www.w3.org/TR/2001/REC-SVG-20010904/DTD/svg10.dtd">
<svg version="1.0" xmlns="http://www.w3.org/2000/svg"
 width="481.000000pt" height="481.000000pt" viewBox="0 0 481.000000 481.000000"
 preserveAspectRatio="xMidYMid meet">
<metadata>
Created by potrace 1.11, written by Peter Selinger 2001-2013
</metadata>
<g transform="translate(0.000000,481.000000) scale(0.100000,-0.100000)"
fill="#000000" stroke="none">
<path d="M675 3669 c-22 -4 -53 -12 -69 -18 -25 -10 -27 -13 -15 -28 8 -9 9
-14 3 -10 -8 5 -12 -20 -13 -85 -1 -51 -4 -94 -6 -97 -3 -2 -5 41 -5 97 0 56
-4 102 -9 102 -16 0 -126 -85 -142 -111 -16 -22 -15 -27 2 -61 11 -21 17 -38
14 -38 -2 0 -12 14 -21 32 l-16 31 -18 -24 c-20 -25 -10 -41 19 -32 13 4 13 3
2 -5 -8 -6 -19 -8 -25 -6 -18 6 -49 -24 -42 -41 3 -9 2 -14 -3 -10 -5 3 -11 2
-14 -2 -2 -5 -2 -2 -1 5 6 23 -24 12 -82 -31 -74 -55 -92 -84 -74 -126 12 -30
14 -31 84 -33 l71 -2 -62 -3 c-36 -2 -63 -9 -63 -15 0 -6 27 -62 60 -126 33
-63 59 -117 57 -119 -2 -2 -33 55 -68 126 l-64 130 -39 -2 c-39 -2 -40 -4 -59
-57 -14 -40 -20 -89 -22 -178 l-2 -123 133 3 c85 2 134 -1 134 -7 0 -5 3 -21
5 -35 5 -23 4 -23 -6 3 l-11 27 -127 0 -128 0 3 -117 c2 -121 3 -130 25 -201
l12 -42 108 0 c59 0 110 -3 112 -7 3 -5 -45 -7 -105 -5 l-111 3 20 -30 c30
-49 103 -121 153 -152 25 -16 41 -29 36 -29 -5 0 -34 18 -66 39 l-58 40 -20
-22 c-10 -12 -27 -35 -37 -50 -25 -40 -10 -47 93 -43 46 1 85 -1 88 -6 3 -4
-43 -7 -101 -6 -82 1 -109 -2 -116 -13 -6 -10 -9 -10 -9 -1 0 6 -6 12 -13 12
-7 0 -13 -11 -13 -25 0 -14 4 -25 8 -25 4 0 8 5 8 12 0 6 2 9 5 7 2 -3 0 -21
-6 -40 -6 -19 -12 -89 -13 -156 l-3 -123 40 0 c48 0 45 -9 -4 -13 l-34 -3 1
-117 c1 -82 6 -135 19 -177 l18 -60 41 0 42 0 63 129 c55 111 67 128 84 123
15 -4 19 -1 14 10 -3 9 -11 34 -18 57 -6 22 -19 42 -28 44 -11 3 -10 5 5 6 17
1 24 -9 38 -60 l16 -60 43 3 42 3 58 115 c32 63 61 117 64 120 10 10 -25 -68
-66 -146 -23 -42 -41 -81 -41 -86 0 -4 27 -8 60 -8 69 0 63 -14 61 140 -2 94
0 268 2 315 l2 30 108 -1 c100 0 108 2 112 21 2 11 6 29 8 40 3 11 5 1 6 -21
l1 -42 65 3 c35 2 86 10 113 19 l49 16 -2 75 c-1 40 2 72 5 70 3 -2 6 -33 5
-69 0 -36 3 -66 7 -66 4 0 5 -7 1 -16 -3 -8 -11 -13 -17 -11 -7 3 -25 -1 -41
-7 -24 -10 -5 -12 113 -12 78 0 142 4 142 8 0 5 8 4 19 -1 10 -6 21 -7 25 -4
3 3 6 1 6 -4 0 -6 -5 -13 -11 -15 -8 -3 -6 -19 4 -53 l14 -50 124 0 124 0 1
178 c1 141 -2 177 -12 177 -10 0 -11 -6 -4 -26 6 -14 10 -31 9 -37 0 -7 -6 4
-13 23 l-13 35 -109 3 c-60 1 -112 6 -116 10 -4 4 43 6 104 4 103 -3 110 -2
104 15 -6 17 -5 17 8 1 7 -10 21 -18 30 -18 14 0 16 16 16 125 0 93 -3 125
-12 125 -9 0 -10 3 -2 8 7 4 12 68 13 184 l2 177 -131 -2 -131 -2 -5 25 c-3
14 -12 41 -19 60 -11 31 -17 35 -52 38 -38 3 -40 1 -58 -38 -10 -23 -23 -43
-27 -47 -5 -3 0 13 11 36 12 22 21 43 21 47 0 3 -18 4 -40 2 -22 -2 -40 0 -40
5 0 5 20 7 45 5 44 -3 45 -2 60 36 l16 39 -38 40 c-21 21 -55 50 -76 63 -34
22 -40 23 -58 10 -12 -8 -32 -38 -45 -67 -14 -28 -27 -50 -29 -47 -3 2 10 35
29 72 31 62 32 67 15 76 -10 6 -24 10 -33 10 -8 0 -17 3 -20 8 -2 4 19 7 47 7
l52 0 3 128 3 127 -120 0 -120 0 -4 -127 -3 -128 -2 128 -2 128 -47 -2 c-27
-2 -66 -6 -88 -10z m-36 -136 c17 -35 29 -63 26 -63 -5 0 -65 116 -65 126 0
12 6 2 39 -63z m49 -98 c-3 -3 -9 2 -12 12 -6 14 -5 15 5 6 7 -7 10 -15 7 -18z
m119 -37 c-3 -8 -6 -5 -6 6 -1 11 2 17 5 13 3 -3 4 -12 1 -19z m23 -222 c8 1
31 2 52 3 29 1 40 7 57 34 11 17 21 28 21 22 -1 -5 -7 -19 -16 -30 -13 -18
-13 -20 3 -27 15 -5 13 -7 -7 -7 -25 -1 -25 -1 5 -20 33 -20 85 -76 85 -92 0
-6 4 -8 8 -5 4 2 8 -26 7 -64 0 -37 4 -66 8 -63 5 3 4 -3 -1 -14 -6 -11 -10
-38 -9 -61 l2 -42 130 -2 130 -2 -130 -6 -130 -5 0 -45 c0 -69 -3 -70 -118
-67 l-102 2 -2 -110 c-3 -124 -8 -155 -25 -155 -9 0 -9 3 0 12 8 8 12 52 12
130 0 130 5 122 -70 118 -62 -3 -85 -8 -123 -24 l-38 -15 3 -88 3 -88 60 -17
c33 -9 53 -17 44 -17 -9 -1 -37 5 -62 13 -43 13 -47 12 -49 -2 -1 -10 -4 31
-7 91 l-6 107 -54 -35 c-30 -20 -49 -29 -42 -21 7 8 33 27 57 41 44 26 44 26
45 83 0 62 0 258 -1 309 l0 32 -115 -1 c-64 0 -118 2 -122 6 -3 3 48 6 115 6
141 0 143 1 110 110 -3 8 -3 13 -1 10 1 -3 42 -4 90 -3 49 1 103 2 120 2 l33
1 -1 68 c-1 121 5 139 10 32 5 -85 9 -105 21 -104z m215 29 c1 -63 -2 -112 -5
-109 -3 3 -5 20 -5 37 0 28 -3 32 -28 33 -41 2 -46 14 -5 14 l35 0 -2 75 c-1
41 1 72 4 69 3 -3 6 -57 6 -119z m70 -174 c-21 -43 -29 -39 -8 4 9 19 18 33
21 31 2 -2 -4 -18 -13 -35z m429 -298 c-7 -31 -51 -113 -61 -113 -3 0 2 11 11
25 21 32 20 35 -6 36 -22 1 -22 1 2 8 15 4 31 20 39 39 18 39 23 41 15 5z
m-1148 -41 c19 2 34 1 34 -3 0 -4 -16 -9 -36 -11 l-36 -3 27 -40 c15 -22 20
-33 11 -25 -10 7 -24 26 -32 42 -9 17 -23 28 -37 29 -18 1 -19 2 -4 6 14 4 17
11 13 31 l-6 27 16 -28 c13 -25 21 -28 50 -25z m1064 -8 c0 -2 -33 -3 -72 -3
-58 2 -65 3 -33 8 39 6 105 3 105 -5z m-947 -1 c-7 -2 -21 -2 -30 0 -10 3 -4
5 12 5 17 0 24 -2 18 -5z m44 1 c-3 -3 -12 -4 -19 -1 -8 3 -5 6 6 6 11 1 17
-2 13 -5z m768 -52 c-3 -3 -11 0 -18 7 -9 10 -8 11 6 5 10 -3 15 -9 12 -12z
m132 -41 l28 24 -24 -27 -24 -27 25 -33 c13 -18 28 -40 32 -48 10 -19 -24 18
-45 50 l-16 24 -39 -30 c-42 -33 -84 -58 -84 -50 0 3 12 12 28 20 15 8 40 26
56 40 l28 25 -28 26 -29 26 32 -22 33 -23 27 25z m-1027 -11 c0 -5 -2 -10 -4
-10 -3 0 -8 5 -11 10 -3 6 -1 10 4 10 6 0 11 -4 11 -10z m93 -79 c20 -12 37
-25 37 -28 0 -6 -40 18 -86 53 l-31 23 -23 -24 c-13 -13 -33 -41 -46 -62 -13
-21 -24 -35 -24 -31 0 11 30 58 64 100 l30 37 20 -22 c12 -12 38 -33 59 -46z
m457 -75 c0 2 9 0 21 -6 14 -8 24 -8 33 -1 9 7 12 3 14 -15 1 -13 -3 -24 -9
-24 -5 0 -8 4 -5 9 5 8 -5 12 -56 26 -5 2 -17 3 -28 4 -11 0 -20 5 -20 11 0 6
9 6 25 0 14 -5 25 -7 25 -4z m237 8 c-3 -3 -12 -4 -19 -1 -8 3 -5 6 6 6 11 1
17 -2 13 -5z m-804 -11 c-7 -2 -19 -2 -25 0 -7 3 -2 5 12 5 14 0 19 -2 13 -5z
m-108 -31 c-23 -20 -106 -71 -100 -62 4 6 28 24 53 40 47 29 65 38 47 22z
m795 -28 c0 -2 -9 0 -20 6 -11 6 -20 13 -20 16 0 2 9 0 20 -6 11 -6 20 -13 20
-16z m-290 -9 c0 -14 -2 -25 -4 -25 -2 0 -6 11 -8 25 -3 14 -1 25 3 25 5 0 9
-11 9 -25z m390 -19 l-23 -25 30 -38 c32 -41 56 -82 31 -52 -7 8 -25 31 -40
49 l-27 34 -23 -20 c-13 -12 -36 -29 -53 -38 -30 -17 -30 -17 -5 1 69 51 75
59 60 79 -14 18 -14 18 3 5 16 -13 21 -12 40 7 30 30 36 28 7 -2z m-390 -41
c0 -14 -2 -25 -4 -25 -2 0 -6 11 -8 25 -3 14 -1 25 3 25 5 0 9 -11 9 -25z
m-256 -235 c-3 -2 -59 -5 -124 -5 -66 -1 -115 2 -111 5 12 7 241 7 235 0z
m-286 -246 c-4 -3 -32 -5 -63 -5 -31 0 -59 2 -63 5 -3 3 25 6 63 6 38 0 66 -3
63 -6z"/>
<path d="M608 2682 c-16 -2 -28 -8 -28 -14 0 -6 11 -7 27 -3 47 11 47 23 1 17z"/>
<path d="M1070 3553 l0 -130 50 0 c27 -1 53 4 58 11 5 6 29 48 52 94 24 45 45
80 47 78 3 -2 -18 -47 -46 -100 l-51 -96 23 -11 c26 -14 59 -46 75 -74 10 -17
12 -11 10 35 l-3 55 -48 -1 c-27 -1 -44 2 -37 6 6 4 29 6 51 5 l41 -2 -4 111
-3 110 -44 13 c-25 7 -73 16 -108 19 l-63 7 0 -130z"/>
<path d="M1302 3528 l3 -103 65 0 c64 0 65 0 83 35 9 19 14 26 11 15 -18 -56
-18 -56 10 -51 14 2 28 1 30 -3 3 -4 -9 -7 -27 -7 -26 1 -36 -5 -54 -34 -12
-19 -22 -30 -22 -25 0 6 6 19 14 29 8 11 15 23 15 26 0 3 -29 6 -65 6 l-65 -1
0 -125 0 -125 20 30 c26 39 26 25 0 -17 -12 -19 -20 -51 -20 -75 l0 -43 131 0
131 0 -4 138 c-3 133 -4 139 -39 212 -20 41 -53 94 -73 117 -34 39 -120 103
-138 103 -5 0 -7 -46 -6 -102z m89 -211 c-10 -9 -11 -8 -5 6 3 10 9 15 12 12
3 -3 0 -11 -7 -18z m-20 -40 c-10 -9 -11 -8 -5 6 3 10 9 15 12 12 3 -3 0 -11
-7 -18z m-20 -40 c-10 -9 -11 -8 -5 6 3 10 9 15 12 12 3 -3 0 -11 -7 -18z"/>
<path d="M3452 3345 l42 -84 55 51 c30 28 70 57 88 66 18 9 33 23 33 32 0 15
-15 17 -130 18 l-129 1 41 -84z"/>
<path d="M3680 3413 c0 -10 5 -11 19 -3 11 5 26 10 33 9 7 0 1 -5 -14 -11 -32
-11 -34 -18 -13 -58 20 -38 11 -39 -10 -2 -14 25 -15 21 -13 -74 2 -62 -1
-101 -7 -101 -6 0 -9 39 -7 104 2 59 -1 103 -6 103 -23 0 -162 -112 -162 -131
0 -3 11 -23 25 -43 14 -21 21 -35 15 -31 -15 9 -14 5 31 -85 l40 -83 47 44 47
44 -43 -46 -44 -47 17 -36 c18 -38 23 -39 109 -37 21 0 41 2 43 4 2 3 2 48 1
101 l-3 96 -40 -20 c-40 -21 -40 -21 -15 -1 14 12 33 23 43 27 9 3 17 14 17
25 0 13 -4 18 -12 13 -7 -4 -8 -3 -4 5 4 6 2 19 -5 27 -6 8 -10 17 -7 19 3 3
11 -6 18 -20 7 -14 17 -25 21 -25 5 0 6 -6 3 -14 -4 -11 1 -13 18 -10 l23 5
-23 -11 c-20 -8 -21 -13 -11 -31 8 -16 8 -20 0 -14 -9 5 -11 -19 -9 -86 l3
-93 28 1 c75 3 70 -3 41 54 -14 28 -21 49 -17 46 5 -3 19 -28 32 -54 22 -49
23 -49 70 -47 26 0 52 4 57 7 5 3 9 60 9 126 -1 95 2 121 13 121 8 0 10 -5 5
-12 -4 -7 -8 -64 -8 -125 0 -94 2 -113 15 -114 8 -1 38 -1 65 -1 l50 0 0 -56
0 -57 70 -6 c66 -5 64 -6 -35 -7 l-106 -2 -27 -56 -28 -56 21 -35 c11 -20 18
-38 15 -41 -3 -3 -5 -1 -5 4 0 5 -9 20 -19 33 l-19 25 -56 -112 c-31 -61 -56
-114 -56 -117 0 -3 52 -5 116 -5 132 0 128 -7 73 99 -16 30 -27 56 -25 58 2 3
16 -20 31 -51 15 -30 32 -53 38 -52 7 1 9 1 5 -1 -5 -3 -8 -9 -8 -14 0 -6 4
-8 9 -5 5 4 8 -2 6 -11 -2 -10 -4 -21 -4 -25 -1 -5 -55 -8 -121 -8 l-119 0 -4
-117 -3 -118 -2 120 -2 121 -52 -3 c-72 -4 -100 -9 -142 -24 l-37 -13 3 -91 3
-90 33 -11 c18 -5 30 -12 28 -15 -3 -3 10 -3 29 -1 30 4 34 2 29 -13 -6 -15
-2 -16 27 -11 l34 7 -32 -15 -33 -15 0 -86 c0 -78 -3 -92 -35 -155 -19 -38
-35 -72 -35 -75 0 -3 19 -5 42 -5 23 0 39 -3 35 -6 -3 -4 -25 -6 -47 -6 -39 1
-43 -2 -61 -41 -21 -48 -25 -131 -8 -192 7 -24 27 -55 52 -79 22 -21 32 -34
21 -27 -34 20 -51 36 -67 66 l-16 30 -1 -57 c0 -39 4 -58 13 -59 41 -4 80 1
93 11 11 10 14 9 14 -6 0 -17 -8 -19 -60 -19 l-60 0 0 -107 c0 -60 -4 -108 -8
-108 -13 0 -99 57 -108 71 -4 7 8 1 27 -13 19 -14 44 -31 57 -37 l22 -12 0
103 0 103 -65 2 -65 1 -20 -38 -19 -37 24 -23 c14 -13 25 -28 25 -33 0 -5 -9
2 -21 17 -11 14 -24 26 -27 26 -4 0 -18 -20 -32 -45 -13 -24 -26 -43 -28 -40
-2 2 8 24 23 50 l26 48 -25 38 c-18 26 -31 37 -42 32 -23 -9 -19 -243 5 -244
9 0 35 -1 59 -1 l42 0 2 -111 c1 -62 2 -119 2 -127 0 -13 19 -16 125 -15 111
0 126 2 129 18 2 10 -5 21 -20 26 -29 12 -86 51 -75 51 5 0 21 -8 35 -18 61
-43 62 -42 62 74 0 58 -4 103 -8 100 -4 -2 -14 0 -22 5 -11 7 -8 8 10 6 24 -4
25 -7 30 -103 l5 -99 44 87 c25 48 46 86 48 84 2 -2 -17 -45 -43 -97 -44 -89
-46 -93 -28 -107 18 -13 18 -14 -5 -7 -17 5 -22 4 -19 -6 2 -7 18 -14 35 -14
18 0 29 3 27 7 -3 5 7 6 23 4 62 -11 133 -16 134 -9 1 5 2 61 3 125 1 64 3
119 6 122 3 3 5 -52 5 -122 l0 -127 175 1 c167 1 272 14 286 35 3 5 -20 57
-50 116 -31 58 -56 112 -56 119 0 9 -14 7 -50 -7 -28 -10 -60 -19 -73 -18 -12
0 6 9 41 18 34 10 66 21 70 25 5 5 -75 177 -96 206 -7 9 -107 6 -114 -4 -6 -8
-10 -8 -15 0 -5 6 -34 11 -65 10 -38 -1 -59 3 -63 11 -2 7 -1 13 4 13 12 0 39
42 46 73 5 18 3 25 -7 23 -28 -4 -36 -17 -32 -52 2 -20 0 -34 -3 -30 -4 3 -7
23 -8 44 l-1 37 -76 0 c-42 0 -79 2 -82 5 -2 3 29 5 70 5 41 -1 78 4 83 10 4
5 7 91 7 190 l-1 181 22 -11 c16 -7 18 -11 8 -13 -8 -2 -15 -5 -15 -8 0 -2 21
-45 46 -95 25 -50 41 -89 37 -86 -5 3 -24 37 -43 76 -18 39 -36 71 -40 71 -3
0 -5 -71 -5 -157 l0 -157 27 -1 c24 -2 32 6 58 52 24 42 28 58 20 73 -14 27
-12 37 3 15 13 -16 19 -7 70 93 32 61 57 113 57 116 0 3 -37 6 -82 6 -45 0
-79 2 -76 5 2 3 38 6 79 6 43 1 77 6 82 13 5 8 9 8 15 0 9 -14 222 -15 222 -2
0 5 -17 7 -37 4 l-38 -5 38 10 37 11 0 93 0 92 -32 11 -33 11 33 -5 c21 -4 32
-2 32 6 0 8 -19 10 -65 7 -40 -3 -68 -1 -72 6 -3 6 -1 7 5 3 7 -4 12 -1 12 7
0 10 -7 13 -20 10 -11 -3 -20 -9 -20 -14 0 -5 -3 -8 -7 -8 -5 1 -20 1 -34 0
l-25 -1 1 -110 c1 -60 -1 -107 -4 -104 -3 3 -6 50 -6 105 0 77 -4 102 -15 109
-12 8 -9 10 10 11 39 1 71 8 98 22 25 12 26 15 25 101 -2 83 1 94 33 157 19
38 34 71 34 74 0 3 -52 5 -115 4 -63 -1 -118 1 -122 4 -3 4 8 7 25 7 30 0 30
0 27 50 -2 27 0 52 4 54 3 2 6 -14 6 -37 -2 -67 -2 -67 96 -67 l89 0 20 40
c14 27 20 59 20 103 0 93 -27 148 -92 190 -43 27 -34 37 32 37 l60 0 0 105 c0
83 3 105 14 105 18 0 129 -82 148 -109 12 -17 17 -19 25 -9 12 16 73 139 73
148 0 3 -24 6 -52 5 l-53 0 -5 108 -5 109 -37 -69 -37 -69 20 -33 c11 -18 18
-38 15 -45 -2 -6 -5 -5 -5 4 -1 8 -10 26 -20 39 l-19 24 -13 -36 c-7 -20 -16
-34 -20 -31 -5 3 1 21 13 42 l20 37 -54 50 c-30 27 -66 56 -81 64 -25 13 -28
12 -49 -11 -13 -13 -41 -61 -63 -106 -21 -45 -42 -82 -45 -82 -4 0 17 46 46
103 29 56 53 107 54 114 0 6 -14 14 -31 18 -17 4 -28 9 -25 12 3 3 19 1 35 -5
24 -9 31 -8 31 2 0 10 -25 13 -112 12 l-113 -1 0 -107 c1 -59 -2 -105 -5 -102
-3 3 -6 46 -6 95 -1 49 -2 96 -3 104 -1 12 -22 14 -116 14 l-115 -1 0 -129 c0
-96 -3 -129 -12 -129 -7 0 -23 -3 -35 -6 -14 -4 -23 -2 -23 5 0 6 14 11 30 11
l30 0 0 123 0 124 -115 -1 c-89 0 -115 -3 -115 -13z m723 -118 c-7 -21 -13
-19 -13 6 0 11 4 18 10 14 5 -3 7 -12 3 -20z m-669 -1 c3 -8 2 -12 -4 -9 -6 3
-10 10 -10 16 0 14 7 11 14 -7z m20 -40 c3 -8 2 -12 -4 -9 -6 3 -10 10 -10 16
0 14 7 11 14 -7z m648 -34 c-3 -35 0 -39 25 -43 26 -4 26 -4 -5 -6 l-32 -1 1
50 c1 28 5 48 8 45 2 -3 4 -23 3 -45z m-564 -155 c-3 -3 -9 2 -12 12 -6 14 -5
15 5 6 7 -7 10 -15 7 -18z m499 -261 c-3 -3 -12 -4 -19 -1 -8 3 -5 6 6 6 11 1
17 -2 13 -5z m-172 -159 c0 -74 -2 -131 -5 -129 -3 3 -5 66 -5 139 0 74 2 131
5 129 3 -3 5 -66 5 -139z m120 -170 c0 -24 -2 -41 -5 -39 -3 3 -5 25 -5 49 0
24 2 41 5 39 3 -3 5 -25 5 -49z m-371 -296 c-6 -11 -41 -12 -48 -1 -2 4 9 8
25 8 16 1 26 -2 23 -7z m129 4 c-7 -2 -19 -2 -25 0 -7 3 -2 5 12 5 14 0 19 -2
13 -5z m57 -253 c0 -5 -5 -10 -11 -10 -5 0 -7 5 -4 10 3 6 8 10 11 10 2 0 4
-4 4 -10z m-183 -67 c-2 -16 -4 -5 -4 22 0 28 2 40 4 28 2 -13 2 -35 0 -50z
m14 -52 c-5 -4 -11 -29 -14 -56 l-3 -50 -2 53 c-2 49 -4 53 -24 52 -40 -4 -44
2 -8 9 38 8 69 2 51 -8z m234 -516 c0 -57 -2 -101 -5 -99 -2 3 -5 52 -5 109 0
57 2 101 5 99 2 -3 5 -52 5 -109z m-733 -67 c-7 -7 -12 -8 -12 -2 0 14 12 26
19 19 2 -3 -1 -11 -7 -17z m488 -33 c0 -8 -7 -15 -15 -15 -13 0 -14 3 -3 15
16 18 18 18 18 0z m-340 -15 c0 -5 -2 -10 -4 -10 -3 0 -8 5 -11 10 -3 6 -1 10
4 10 6 0 11 -4 11 -10z m55 -29 c-18 -36 -11 -57 31 -90 15 -12 23 -21 18 -21
-4 0 -23 14 -40 31 l-32 31 -26 -48 c-14 -27 -25 -44 -25 -39 0 6 10 30 23 55
22 41 22 46 9 70 -13 21 -13 22 0 8 19 -24 23 -23 37 12 7 17 15 29 17 26 2
-2 -3 -18 -12 -35z m650 -96 c0 -57 -2 -101 -5 -99 -2 3 -5 52 -5 109 0 57 2
101 5 99 2 -3 5 -52 5 -109z m-732 -70 c-3 -9 -8 -14 -10 -11 -3 3 -2 9 2 15
9 16 15 13 8 -4z"/>
<path d="M4406 3423 c-12 -13 -5 -22 42 -51 26 -17 63 -47 81 -66 19 -20 38
-36 41 -36 8 0 80 134 80 148 0 10 -234 15 -244 5z"/>
<path d="M3410 3285 c0 -98 1 -105 20 -105 12 0 26 13 39 37 l19 38 -34 67
c-19 38 -36 68 -39 68 -3 0 -5 -47 -5 -105z"/>
<path d="M122 3220 c-18 -29 -15 -40 13 -40 28 0 30 5 12 37 -12 22 -13 22
-25 3z"/>
<path d="M1203 3210 c-11 -29 -10 -30 18 -30 33 0 35 6 11 38 l-17 22 -12 -30z"/>
<path d="M3476 3212 l-17 -32 31 0 c33 0 35 4 16 39 l-14 25 -16 -32z"/>
<path d="M1923 3162 c-18 -2 -33 -6 -33 -8 0 -3 26 -58 58 -122 l57 -117 3
119 c1 65 1 121 -2 123 -6 6 -45 9 -83 5z"/>
<path d="M2043 3162 c-21 -3 -23 -9 -23 -60 l0 -56 27 41 c14 23 37 46 50 52
45 20 16 33 -54 23z"/>
<path d="M2165 3162 c-41 -5 -104 -58 -126 -106 -25 -55 -25 -151 0 -208 l19
-44 90 1 c50 0 93 3 96 6 5 5 14 146 17 269 2 68 3 70 8 27 l6 -49 17 29 c9
15 31 37 50 47 31 17 30 16 -9 -18 -51 -44 -60 -71 -68 -206 l-7 -106 111 1
c60 0 108 -2 105 -5 -3 -3 -51 -5 -107 -5 l-102 0 -3 -158 c-2 -116 1 -157 9
-152 8 6 8 2 0 -13 -6 -11 -11 -23 -11 -26 0 -3 53 -6 118 -6 l118 0 -1 231
c-1 127 2 232 5 234 4 2 6 -20 5 -50 -1 -30 1 -52 6 -50 4 3 10 1 13 -4 3 -5
0 -11 -7 -14 -9 -3 -12 -44 -11 -168 1 -90 2 -167 3 -171 2 -12 231 -10 231 1
0 6 -4 13 -10 16 -5 3 -10 12 -10 18 0 7 4 6 10 -3 6 -10 10 40 10 151 l0 165
-96 -1 c-52 -1 -97 1 -99 4 -2 3 40 6 93 6 l97 0 -1 55 c-1 30 -2 110 -3 177
-2 136 -1 133 -79 124 -32 -3 -36 -9 -90 -122 -32 -65 -59 -118 -62 -118 -3 0
-25 43 -50 95 -71 150 -69 149 -170 149 -47 0 -98 -2 -115 -3z m521 -54 c12
-12 24 -30 28 -38 4 -8 -1 -5 -11 8 -10 13 -32 34 -48 48 -17 14 -21 21 -10
15 11 -5 29 -20 41 -33z m-316 -446 c0 -5 -7 -17 -15 -28 -14 -18 -14 -17 -4
9 12 27 19 34 19 19z m279 -22 c11 -24 11 -24 -3 -6 -9 11 -16 24 -16 30 0 12
5 7 19 -24z m-316 -50 c-3 -11 -10 -23 -16 -27 -5 -3 -8 -2 -5 3 3 5 8 17 11
27 9 24 16 22 10 -3z m341 4 c3 -8 2 -12 -4 -9 -6 3 -10 10 -10 16 0 14 7 11
14 -7z m46 -92 c0 -4 -9 7 -20 23 -11 17 -20 35 -20 40 0 6 9 -5 20 -23 11
-18 20 -36 20 -40z m-410 40 c0 -5 -7 -17 -15 -28 -14 -18 -14 -17 -4 9 12 27
19 34 19 19z"/>
<path d="M2768 3162 l-28 -3 0 -88 c0 -48 3 -128 6 -177 l7 -90 93 0 94 1 20
42 c44 94 16 228 -58 278 -20 14 -32 25 -26 25 18 0 65 -41 85 -74 l19 -31 0
58 c0 38 -4 57 -12 58 -50 3 -178 3 -200 1z"/>
<path d="M3008 3162 c-16 -3 -18 -17 -18 -130 l0 -127 64 125 c35 69 62 126
61 128 -3 4 -89 7 -107 4z"/>
<path d="M3530 3039 c0 -124 12 -142 53 -81 l24 38 -38 74 -38 75 -1 -106z"/>
<path d="M4737 3071 l-37 -69 21 -36 c12 -21 29 -36 39 -36 17 0 19 10 18 105
0 58 -1 105 -2 105 -1 0 -19 -31 -39 -69z"/>
<path d="M4520 3030 l0 -100 64 0 c55 0 66 3 79 23 l16 22 -6 -22 c-3 -15 -1
-23 8 -24 8 0 22 -2 32 -4 20 -4 20 -3 5 30 -6 14 -16 25 -22 25 -7 0 -17 13
-23 29 -10 27 -122 121 -144 121 -5 0 -9 -45 -9 -100z"/>
<path d="M3592 2959 c-15 -24 -15 -26 14 -31 22 -3 27 6 18 35 -7 23 -16 22
-32 -4z"/>
<path d="M4414 2907 c45 -29 64 -48 79 -79 l17 -33 0 63 0 62 -57 -1 c-49 0
-55 -2 -39 -12z"/>
<path d="M4520 2793 c0 -69 2 -124 4 -122 2 2 31 59 65 127 l61 122 -65 0 -65
0 0 -127z"/>
<path d="M4125 2860 l-25 -50 28 0 c27 0 28 2 27 50 0 27 -1 50 -2 50 -2 0
-14 -22 -28 -50z"/>
<path d="M2070 2790 c-1 -12 166 -339 173 -340 4 0 7 78 7 173 l0 173 -90 -1
c-49 0 -90 -2 -90 -5z"/>
<path d="M2759 2789 c-6 -3 -8 -80 -7 -180 l3 -174 88 178 c48 98 87 179 87
180 0 6 -162 2 -171 -4z"/>
<path d="M55 2473 c0 -15 6 -28 13 -31 13 -4 15 3 6 36 -9 31 -21 28 -19 -5z"/>
<path d="M3689 2430 c-20 -13 -5 -22 21 -12 18 7 20 10 8 14 -8 4 -21 2 -29
-2z"/>
<path d="M59 2423 c-1 -5 -3 -61 -3 -125 -1 -101 1 -118 14 -115 8 1 26 18 39
37 13 19 35 47 48 61 l24 26 -36 43 c-20 24 -40 51 -46 61 -10 19 -38 26 -40
12z"/>
<path d="M1757 2423 c-2 -5 -5 -61 -6 -125 -1 -110 0 -118 18 -118 12 0 28 16
44 43 14 23 34 51 46 61 l21 19 -27 31 -28 31 30 -27 30 -26 30 24 c17 14 44
32 60 40 32 16 23 8 -45 -39 -47 -33 -45 -38 28 -87 25 -16 41 -30 35 -30 -5
0 -31 16 -56 35 -25 19 -50 35 -56 35 -11 0 -51 -50 -70 -87 l-12 -23 701 0
700 0 -25 40 c-53 84 -51 83 -109 39 -28 -21 -55 -39 -61 -39 -5 0 14 16 43
35 54 37 61 51 40 75 -7 8 -3 7 8 -3 21 -17 22 -17 45 10 13 16 32 40 42 53
18 25 18 25 1 -5 -9 -16 -25 -39 -35 -51 -11 -11 -19 -23 -19 -26 0 -18 84
-128 99 -128 14 0 16 14 17 118 0 64 -4 120 -9 123 -4 3 -171 6 -370 7 l-363
2 1 -116 c0 -63 -2 -117 -5 -119 -3 -2 -5 49 -5 113 l0 117 -347 1 -347 2 15
-32 15 -31 -20 25 c-11 14 -21 28 -21 33 0 4 -6 7 -14 7 -8 0 -17 -3 -19 -7z
m1308 -73 c3 -5 -10 -1 -29 11 -20 12 -36 23 -36 25 0 7 58 -25 65 -36z"/>
<path d="M3680 2198 c0 -8 12 -15 27 -16 29 -2 29 0 -4 17 -18 9 -23 9 -23 -1z"/>
<path d="M1057 2170 c-9 -4 -12 -60 -12 -225 0 -188 3 -225 18 -254 22 -44 22
-53 -1 -19 -17 26 -18 25 -17 -95 l0 -122 64 -3 c58 -3 63 -1 57 15 -6 17 -5
17 8 0 10 -13 25 -17 53 -15 36 3 39 6 53 50 8 26 18 50 22 53 7 7 -17 -79
-27 -95 -6 -10 61 -24 108 -23 15 1 60 2 101 2 l73 1 -1 122 c-1 101 -4 123
-16 125 -9 2 -24 -13 -37 -35 l-21 -38 34 -64 c19 -36 33 -68 31 -73 -1 -5
-27 41 -57 101 l-54 110 -65 1 c-86 2 -92 11 -7 11 l67 0 -16 30 c-9 17 -13
30 -11 30 3 0 13 -14 21 -31 15 -27 20 -30 57 -27 37 3 43 7 54 38 7 19 13 30
13 23 1 -6 -3 -23 -9 -37 -7 -20 -6 -26 4 -26 10 0 13 40 14 178 l2 178 -129
-1 -130 -1 -18 59 -18 59 -98 1 c-54 1 -103 0 -110 -3z m287 -277 c20 -40 34
-73 31 -73 -5 0 -75 136 -75 146 0 12 6 1 44 -73z m-194 -77 c0 -2 -13 -6 -30
-8 -16 -3 -30 -1 -30 4 0 4 14 8 30 8 17 0 30 -2 30 -4z m97 -2 c-3 -3 -22 -6
-42 -6 -20 0 -39 3 -42 6 -4 3 15 6 42 6 27 0 46 -3 42 -6z m46 -1 c-7 -2 -19
-2 -25 0 -7 3 -2 5 12 5 14 0 19 -2 13 -5z m101 -19 c3 -8 2 -12 -4 -9 -6 3
-10 10 -10 16 0 14 7 11 14 -7z m-281 -206 c4 -10 5 -18 2 -18 -4 0 -35 60
-35 69 0 8 26 -32 33 -51z m357 13 c0 -5 -7 -12 -16 -15 -14 -5 -15 -4 -4 9
14 17 20 19 20 6z m-60 -61 c-19 -16 -53 -38 -75 -50 -22 -11 -32 -15 -21 -8
10 7 41 30 70 50 61 45 74 49 26 8z m-250 -48 c0 -4 -9 7 -20 23 -11 17 -20
35 -20 40 0 6 9 -5 20 -23 11 -18 20 -36 20 -40z"/>
<path d="M2260 1993 c-1 -172 0 -173 22 -183 l23 -9 -22 0 c-26 -1 -28 -16
-14 -158 6 -63 14 -92 35 -125 27 -43 27 -43 2 -13 -14 17 -26 33 -26 38 0 4
-6 7 -12 7 -10 0 -14 33 -16 122 -1 84 -6 124 -15 130 -9 6 -9 8 1 8 9 0 12
42 12 177 0 104 -4 173 -9 168 -10 -12 -171 -328 -171 -337 0 -4 6 -8 13 -11
6 -2 5 -3 -4 -2 -27 4 -59 -76 -59 -148 0 -77 24 -132 76 -176 22 -18 30 -28
19 -23 -23 12 -67 58 -83 87 -9 16 -11 9 -12 -40 l0 -60 103 1 c147 2 136 -2
135 44 0 23 2 44 6 47 3 4 6 -16 6 -44 l0 -50 50 1 c28 1 50 3 50 5 0 2 -8 10
-17 18 -16 13 -16 13 5 3 13 -7 25 -10 27 -8 1 2 27 53 58 113 47 94 54 117
52 158 -2 26 0 49 3 51 4 2 8 -21 8 -53 1 -47 10 -74 54 -161 29 -58 54 -107
56 -109 2 -2 15 4 30 13 14 10 28 16 30 13 2 -2 -7 -10 -21 -17 -37 -20 -31
-26 25 -26 l50 1 0 47 c0 27 3 48 8 48 4 0 7 -21 7 -47 l0 -48 115 0 115 0 3
60 3 60 -21 -34 c-22 -35 -58 -70 -73 -71 -5 0 6 12 24 27 68 57 92 190 49
273 -18 35 -25 40 -58 42 -37 1 -37 1 -4 5 17 2 32 6 32 8 0 9 -170 345 -175
345 -3 0 -5 -79 -5 -176 l2 -176 39 4 c21 2 39 0 39 -4 0 -5 -26 -8 -57 -7
-32 0 -52 3 -45 6 9 3 12 46 12 164 0 114 -3 158 -11 153 -8 -5 -8 -1 0 14 6
11 11 23 11 26 0 2 -108 4 -239 4 l-239 -1 -2 -174z m247 142 c0 -8 -4 -15 -9
-15 -10 0 -11 14 -1 23 9 10 10 9 10 -8z m-187 -94 c-1 -10 -50 73 -50 84 0 6
11 -10 25 -34 14 -23 25 -46 25 -50z m185 -63 c-1 -152 1 -165 24 -171 9 -3
-11 -5 -43 -6 -62 -1 -72 5 -21 12 l30 4 1 139 c1 140 2 154 7 154 1 0 2 -60
2 -132z m215 124 c0 -5 -7 -17 -15 -28 -14 -18 -14 -17 -4 9 12 27 19 34 19
19z m-50 -101 c-28 -56 -35 -52 -8 4 12 24 23 43 26 41 2 -2 -6 -22 -18 -45z
m-326 -8 c9 -18 14 -33 12 -33 -6 0 -36 55 -36 66 0 11 5 3 24 -33z m-154
-185 c0 -5 -19 -8 -42 -7 -26 0 -36 3 -26 7 23 9 68 9 68 0z m195 2 c4 -6 -10
-9 -37 -9 l-43 2 35 7 c19 4 36 8 37 9 1 0 5 -3 8 -9z m205 0 c0 -5 -10 -10
-22 -9 -22 0 -22 1 -3 9 11 5 21 9 23 9 1 1 2 -3 2 -9z m115 0 c4 -6 -10 -9
-37 -9 l-43 2 35 7 c19 4 36 8 37 9 1 0 5 -3 8 -9z m39 -132 c-5 -89 -11 -119
-28 -145 -12 -18 -25 -33 -29 -33 -4 0 2 13 14 30 21 27 35 117 38 233 1 15 4
27 7 27 3 0 2 -51 -2 -112z"/>
<path d="M247 1575 c-31 -63 -57 -117 -57 -120 0 -3 26 -5 59 -5 l58 0 43 83
43 83 -24 37 c-41 63 -57 53 -122 -78z"/>
<path d="M377 1658 c29 -51 108 -131 152 -156 l41 -23 1 25 c2 108 0 166 -5
175 -4 5 -34 9 -68 8 -54 -2 -64 -5 -74 -25 -17 -34 -27 -40 -15 -9 6 16 11
30 11 31 0 2 -14 3 -30 4 l-30 1 17 -31z"/>
<path d="M1450 1683 c1 -5 7 -19 14 -32 l13 -24 17 24 c22 32 21 34 -14 37
-16 1 -30 -1 -30 -5z"/>
<path d="M1947 1575 c-31 -63 -57 -119 -57 -123 0 -5 27 -8 60 -8 l60 1 0 122
c0 68 -1 123 -3 123 -1 0 -28 -52 -60 -115z"/>
<path d="M2991 1570 l-1 -126 60 0 c35 0 60 5 59 11 0 5 -27 62 -59 125 l-59
115 0 -125z"/>
<path d="M3605 1573 l-61 -121 54 -4 c30 -2 58 0 63 3 6 3 8 58 7 125 l-3 119
-60 -122z"/>
<path d="M355 1523 l-40 -78 -68 -5 c-60 -4 -70 -8 -83 -30 -7 -14 -13 -21
-14 -17 0 5 5 17 10 28 10 17 7 19 -25 19 -32 0 -35 -2 -26 -18 5 -10 17 -24
25 -32 9 -7 16 -18 16 -25 0 -15 84 -92 129 -118 l31 -18 1 53 c1 29 1 76 0
105 l0 52 127 -1 c105 0 128 2 130 15 2 8 -15 25 -41 40 -24 14 -62 44 -84 66
-22 23 -42 41 -45 41 -2 0 -21 -35 -43 -77z"/>
<path d="M54 1485 c0 -23 5 -35 14 -35 10 0 12 7 7 28 -10 42 -21 46 -21 7z"/>
<path d="M55 1330 c0 -60 1 -110 2 -110 2 0 14 23 28 50 14 28 28 50 31 50 3
0 -10 -29 -29 -65 -33 -62 -34 -65 -13 -66 11 0 68 -1 126 -1 87 -1 106 2 108
14 2 9 -13 25 -35 39 -21 13 -60 44 -86 68 -39 36 -50 42 -58 30 -5 -9 -9 -9
-9 -2 0 6 4 15 10 18 14 9 -39 85 -59 85 -14 0 -16 -15 -16 -110z"/>
<path d="M1045 1336 l0 -104 30 15 c16 9 39 23 50 32 19 15 19 15 6 -2 -8 -10
-26 -25 -40 -32 -45 -25 -52 -31 -46 -46 5 -13 88 -16 236 -10 11 1 17 10 17
24 0 12 2 67 3 122 3 93 1 100 -17 103 -12 2 -25 -8 -36 -29 -24 -41 -23 -50
12 -116 17 -31 28 -58 26 -61 -3 -2 -17 21 -32 52 -15 31 -30 59 -35 62 -5 3
-23 -10 -40 -28 l-31 -33 33 43 c28 37 31 46 21 62 -17 28 -14 39 4 15 15 -20
15 -20 30 -1 8 11 14 23 14 27 0 4 -46 8 -103 8 l-102 1 0 -104z"/>
<path d="M3460 1431 c0 -5 9 -19 19 -32 l19 -24 11 28 c6 16 11 29 11 30 0 1
-14 3 -30 4 -17 1 -30 -2 -30 -6z"/>
<path d="M4304 1425 c-2 -5 16 -48 41 -95 25 -49 45 -77 45 -65 1 18 2 18 10
-2 5 -13 13 -23 18 -23 11 0 94 59 104 74 5 8 8 7 8 -1 0 -6 -29 -31 -65 -55
-36 -23 -65 -46 -65 -50 0 -4 24 -56 54 -115 l55 -108 3 105 4 105 2 -107 c1
-60 4 -108 7 -108 10 0 83 49 90 60 3 5 11 10 16 10 13 0 -36 -41 -78 -65 -18
-11 -33 -26 -33 -35 0 -13 18 -15 119 -15 66 0 122 3 126 7 6 6 -46 120 -68
146 -8 10 -13 8 -24 -8 -8 -11 -18 -20 -24 -20 -5 0 0 9 11 20 24 24 25 36 6
72 -8 15 -13 38 -12 52 2 14 0 23 -5 20 -4 -2 -22 24 -39 58 -39 77 -37 76
-56 52 -14 -17 -14 -16 0 8 15 26 15 30 -4 60 -19 31 -23 33 -80 34 -67 0 -66
1 -73 -81 -3 -29 -4 -23 -5 21 l-2 60 -41 0 c-23 0 -43 -5 -45 -11z m106 -119
c0 -3 -4 -8 -10 -11 -5 -3 -10 -1 -10 4 0 6 5 11 10 11 6 0 10 -2 10 -4z"/>
<path d="M4550 1426 c0 -6 7 -19 14 -29 13 -17 15 -17 30 5 22 31 20 35 -14
35 -16 0 -30 -5 -30 -11z"/>
<path d="M4607 1404 c-16 -23 -23 -42 -18 -53 35 -78 53 -111 62 -111 14 0 7
192 -8 197 -6 2 -23 -12 -36 -33z"/>
<path d="M4670 1178 c0 -9 98 -208 103 -208 1 0 2 47 2 105 0 120 -10 136 -50
77 -14 -20 -25 -32 -25 -27 0 6 7 19 15 29 21 28 19 33 -15 33 -16 0 -30 -4
-30 -9z"/>
<path d="M4465 946 l-30 -14 37 2 c23 0 38 6 38 14 0 15 -7 15 -45 -2z"/>
</g>
</svg>
